# xmcd
#
# Track frame offsets: 
#        150
#        13112
#        24412
#        35901
#        51335
#        62700
#        77894
#        90626
#        99861
#        114520
#        125217
#        144854
#        157987
#        170309
#        185840
#
# Disc length: 2640 seconds
#
# Revision: 0
# Processed by: cddbd v1.5.2PL0 Copyright (c) Steve Scherf et al.
# Submitted via: ExactAudioCopy v1.0b3
#
DISCID=c70a4e0f
DTITLE=Eyelids - 854
DYEAR=2015
DGENRE=Indie Rock
TTITLE0=Seagulls Into Submission
TTITLE1=Psych #1
TTITLE2=Forget Into Tomorrow
TTITLE3=Frame We Filled
TTITLE4=854
TTITLE5=Mile To Wave
TTITLE6=Abby's Friends
TTITLE7=Everybody
TTITLE8=Into The Sun
TTITLE9=You Are Your Own
TTITLE10=Floating Underground
TTITLE11=Say It's Alright
TTITLE12=From A Distance
TTITLE13=I Can't Be Told
TTITLE14=Psych #1b
EXTD=
EXTT0=
EXTT1=
EXTT2=
EXTT3=
EXTT4=
EXTT5=
EXTT6=
EXTT7=
EXTT8=
EXTT9=
EXTT10=
EXTT11=
EXTT12=
EXTT13=
EXTT14=
PLAYORDER=
